<svg width="150" height="100" viewBox="0 0 150 100" fill="none" xmlns="http://www.w3.org/2000/svg">
<path d="M34.0927 39.8798C32.4252 39.8798 30.825 40.1069 29.2322 40.314C29.7482 38.7642 30.2791 37.1877 31.1315 35.7715C31.984 33.7141 33.315 31.9305 34.6386 30.1336C35.7453 28.1897 37.697 26.8737 39.1327 25.2104C40.6358 23.5938 42.6847 22.5184 44.3073 21.1757C45.9001 19.7729 47.9864 19.0715 49.6464 18.0828C51.3813 17.1944 52.8918 16.2124 54.507 15.7448L58.5375 14.2619L62.0819 12.9459L58.4552 0L53.991 0.961921C52.5628 1.28256 50.8204 1.65664 48.8388 2.10421C46.8124 2.43821 44.6513 3.35337 42.2435 4.18838C39.8655 5.13694 37.1137 5.77822 34.5563 7.30127C31.984 8.75751 29.0153 9.97328 26.3981 11.9238C23.8632 13.9345 20.8048 15.678 18.5465 18.2365C16.0788 20.6279 13.6411 23.1396 11.7492 25.9987C9.55826 28.7241 8.07018 31.7168 6.49986 34.676C5.07909 37.6353 3.93499 40.6613 3.00027 43.6005C1.22805 49.4923 0.435408 55.0902 0.128821 59.8798C-0.125422 64.676 0.0241326 68.664 0.338198 71.5498C0.450364 72.9125 0.659741 74.2351 0.809296 75.1503L0.996239 76.2725L1.19066 76.2325C2.52066 81.7824 5.58237 86.8826 10.0216 90.9431C14.4608 95.0035 20.0962 97.8583 26.2758 99.1772C32.4554 100.496 38.9267 100.225 44.9411 98.3957C50.9555 96.5663 56.2673 93.2531 60.2619 88.8396C64.2565 84.426 66.7708 79.0923 67.5139 73.4555C68.2569 67.8188 67.1984 62.1093 64.4608 56.9874C61.7232 51.8656 57.4183 47.5408 52.0442 44.5133C46.67 41.4858 40.4462 39.8794 34.0927 39.8798V39.8798ZM116.348 39.8798C114.68 39.8798 113.08 40.1069 111.487 40.314C112.003 38.7642 112.534 37.1877 113.387 35.7715C114.239 33.7141 115.57 31.9305 116.894 30.1336C118 28.1897 119.952 26.8737 121.388 25.2104C122.891 23.5938 124.94 22.5184 126.562 21.1757C128.155 19.7729 130.242 19.0715 131.902 18.0828C133.636 17.1944 135.147 16.2124 136.762 15.7448L140.793 14.2619L144.337 12.9459L140.71 0L136.246 0.961921C134.818 1.28256 133.076 1.65664 131.094 2.10421C129.068 2.43821 126.906 3.35337 124.499 4.18838C122.128 5.14362 119.369 5.77822 116.812 7.30795C114.239 8.76419 111.271 9.97996 108.653 11.9305C106.118 13.9412 103.06 15.6847 100.802 18.2365C98.334 20.6279 95.8963 23.1396 94.0044 25.9987C91.8134 28.7241 90.3253 31.7168 88.755 34.676C87.3343 37.6353 86.1902 40.6613 85.2554 43.6005C83.4832 49.4923 82.6906 55.0902 82.384 59.8798C82.1297 64.676 82.2793 68.664 82.5934 71.5498C82.7055 72.9125 82.9149 74.2351 83.0645 75.1503L83.2514 76.2725L83.4458 76.2325C84.7758 81.7824 87.8375 86.8826 92.2768 90.9431C96.716 95.0035 102.351 97.8583 108.531 99.1772C114.711 100.496 121.182 100.225 127.196 98.3957C133.211 96.5663 138.522 93.2531 142.517 88.8396C146.512 84.426 149.026 79.0923 149.769 73.4555C150.512 67.8188 149.454 62.1093 146.716 56.9874C143.978 51.8656 139.673 47.5408 134.299 44.5133C128.925 41.4858 122.701 39.8794 116.348 39.8798V39.8798Z" fill="#CFCFCF" fill-opacity="0.2"/>
</svg>
