<svg width="340" height="89" viewBox="0 0 340 89" fill="none" xmlns="http://www.w3.org/2000/svg">
<path d="M15.72 59.04H58.8L56.64 52.8H17.88L15.72 59.04ZM37.08 15.24L53.64 55.32L54.24 56.88L66.72 87.24H74.16L37.08 -1.66893e-05L-1.70246e-05 87.24H7.43998L20.04 56.4L20.76 54.96L37.08 15.24ZM85.649 42.12H99.209C103.929 42.12 108.089 41.44 111.689 40.08C115.289 38.64 118.089 36.56 120.089 33.84C122.169 31.04 123.209 27.6 123.209 23.52C123.209 20.16 122.649 17.24 121.529 14.76C120.409 12.2 118.769 10.08 116.609 8.39999C114.449 6.71999 111.849 5.43999 108.809 4.55999C105.849 3.67999 102.489 3.23998 98.729 3.23998H80.489V87.24H99.929C105.369 87.24 110.169 86.36 114.329 84.6C118.569 82.84 121.889 80.16 124.289 76.56C126.689 72.96 127.889 68.4 127.889 62.88C127.889 59.04 127.089 55.72 125.489 52.92C123.969 50.04 121.889 47.68 119.249 45.84C116.689 44 113.769 42.64 110.489 41.76C107.209 40.8 103.849 40.32 100.409 40.32H85.649V44.16H99.929C102.729 44.16 105.409 44.56 107.969 45.36C110.529 46.16 112.809 47.36 114.809 48.96C116.809 50.48 118.369 52.4 119.489 54.72C120.609 56.96 121.169 59.56 121.169 62.52C121.169 66.68 120.289 70.16 118.529 72.96C116.769 75.76 114.289 77.88 111.089 79.32C107.889 80.68 104.169 81.36 99.929 81.36H87.089V9.11999H98.729C104.169 9.11999 108.489 10.44 111.689 13.08C114.969 15.64 116.609 19.24 116.609 23.88C116.609 27.16 115.809 29.88 114.209 32.04C112.609 34.12 110.449 35.68 107.729 36.72C105.009 37.76 102.009 38.28 98.729 38.28H85.649V42.12ZM141.716 45.24C141.716 39.96 142.556 35.12 144.236 30.72C145.996 26.24 148.436 22.36 151.556 19.08C154.676 15.8 158.356 13.28 162.596 11.52C166.836 9.67999 171.476 8.75998 176.516 8.75998C181.556 8.75998 186.196 9.67999 190.436 11.52C194.676 13.28 198.316 15.8 201.356 19.08C204.476 22.36 206.876 26.24 208.556 30.72C210.316 35.12 211.196 39.96 211.196 45.24C211.196 50.52 210.316 55.4 208.556 59.88C206.876 64.28 204.476 68.12 201.356 71.4C198.316 74.68 194.676 77.24 190.436 79.08C186.196 80.84 181.556 81.72 176.516 81.72C171.476 81.72 166.836 80.84 162.596 79.08C158.356 77.24 154.676 74.68 151.556 71.4C148.436 68.12 145.996 64.28 144.236 59.88C142.556 55.4 141.716 50.52 141.716 45.24ZM134.756 45.24C134.756 51.4 135.796 57.12 137.876 62.4C139.956 67.6 142.876 72.16 146.636 76.08C150.396 79.92 154.796 82.92 159.836 85.08C164.956 87.24 170.516 88.32 176.516 88.32C182.516 88.32 188.036 87.24 193.076 85.08C198.196 82.92 202.636 79.92 206.396 76.08C210.156 72.16 213.076 67.6 215.156 62.4C217.236 57.12 218.276 51.4 218.276 45.24C218.276 39.08 217.236 33.4 215.156 28.2C213.076 22.92 210.156 18.36 206.396 14.52C202.636 10.6 198.196 7.55999 193.076 5.39999C188.036 3.23998 182.516 2.15998 176.516 2.15998C170.516 2.15998 164.956 3.23998 159.836 5.39999C154.796 7.55999 150.396 10.6 146.636 14.52C142.876 18.36 139.956 22.92 137.876 28.2C135.796 33.4 134.756 39.08 134.756 45.24ZM228.141 3.23998V60.12C228.141 64.28 228.741 68.12 229.941 71.64C231.141 75.08 232.901 78.08 235.221 80.64C237.541 83.12 240.341 85.04 243.621 86.4C246.981 87.76 250.781 88.44 255.021 88.44C259.261 88.44 263.021 87.76 266.301 86.4C269.661 85.04 272.501 83.12 274.821 80.64C277.141 78.08 278.901 75.08 280.101 71.64C281.301 68.12 281.901 64.28 281.901 60.12V3.23998H275.301V60.12C275.301 64.6 274.501 68.52 272.901 71.88C271.381 75.16 269.101 77.72 266.061 79.56C263.021 81.32 259.341 82.2 255.021 82.2C250.701 82.2 247.021 81.32 243.981 79.56C241.021 77.72 238.741 75.16 237.141 71.88C235.541 68.52 234.741 64.6 234.741 60.12V3.23998H228.141ZM288.314 9.47999H310.394V87.24H316.994V9.47999H339.074V3.23998H288.314V9.47999Z" fill="#8A8383"/>
</svg>
